<?xml version="1.0" encoding="UTF-8"?>
<svg id="Camada_1" data-name="Camada 1" xmlns="http://www.w3.org/2000/svg" version="1.1" viewBox="0 0 2302.1 504.8">
  <defs>
    <style>
      .cls-1 {
        fill: #000;
        stroke-width: 0px;
      }

      .cls-2 {
        isolation: isolate;
      }
    </style>
  </defs>
  <path class="cls-1" d="M470.2,129.8c-27.8,0-53.4,15.2-66.8,39.8l-40.6,166.4-34.1-161.7c-17.1-33.7-65-38.1-82.3-4.6l-35.8,167.5-31.1-110.5h0l-24-85.3c-3.6-13-17.3-21.9-30.3-18.2l-8.5,2.4c-12.2,3.4-20.1,15.8-17.5,28h0c.2.7.3,1.5.6,2.2l2.5,7.8,67,220.2c16.4,31.2,62.6,31.8,80,1.1l36.5-141.2,35.4,141c16.8,30.7,62.9,30.8,79.7.1l52.5-186.7c9.5-17.3,35.5-10.5,35.5,9.1v154.9c.1,47-38,85.2-84.8,85.2H142.5c-46.8,0-85-38.3-85-85.2v-219.1c0-47,38.1-85.2,85-85.2h383.5c10.9,0,19.8-8.9,19.8-19.8v-18.2c0-10.9-8.9-19.8-19.8-19.8h-221.3c-.7,0-1.4,0-2.1.1h-160C63.9.1,0,64.2,0,143.1v218.8c0,79,63.7,143,142.5,143h261.2c78.8,0,142.5-63.9,142.5-143v-155.8c0-42.1-34-76.2-76-76.2"/>
  <g class="cls-2">
    <g class="cls-2">
      <path class="cls-1" d="M709.8,229.3l-48.6-167.1h44.6l25.2,109.5h1.4l28.8-109.5h36.4l28.8,109.8h1.4l25.3-109.8h44.6l-48.6,167.1h-38.9l-30.1-101.4h-1.3l-30.1,101.4h-38.8Z"/>
      <path class="cls-1" d="M934.4,89.3c-5.6,0-10.4-1.9-14.4-5.6-4-3.7-6-8.2-6-13.5s2-9.7,6-13.4c4-3.7,8.8-5.6,14.4-5.6s10.5,1.9,14.5,5.6c4,3.7,6,8.2,6,13.4s-2,9.8-6,13.5c-4,3.7-8.8,5.6-14.5,5.6ZM914.4,229.3v-125.3h39.9v125.3h-39.9Z"/>
      <path class="cls-1" d="M1019.5,62.2v167.1h-39.9V62.2h39.9Z"/>
      <path class="cls-1" d="M1084.7,62.2v167.1h-39.9V62.2h39.9Z"/>
      <path class="cls-1" d="M1168.6,231.7c-13.1,0-24.4-2.6-33.9-7.8-9.5-5.2-16.8-12.6-21.9-22.3-5.1-9.7-7.6-21.1-7.6-34.5s2.6-24.3,7.7-34c5.1-9.7,12.3-17.3,21.6-22.7,9.3-5.4,20.3-8.1,32.9-8.1s17.1,1.4,24.5,4.2,13.8,6.9,19.2,12.3c5.4,5.4,9.6,12.1,12.6,20.1,3,8,4.5,17.1,4.5,27.4v10h-108.9v-23.2h71.8c0-4.2-1.1-8-3-11.3-2-3.3-4.6-5.9-8-7.8-3.4-1.9-7.3-2.8-11.7-2.8s-8.5,1-12,3c-3.5,2-6.3,4.7-8.4,8.1-2.1,3.4-3.2,7.2-3.3,11.5v23.6c0,5.1,1,9.6,3,13.4,2,3.8,4.9,6.8,8.6,8.9,3.7,2.1,8.1,3.2,13.2,3.2s6.7-.5,9.6-1.5,5.4-2.4,7.4-4.3c2.1-1.9,3.6-4.2,4.7-7l36.6,1.1c-1.5,8.2-4.9,15.4-10,21.4-5.1,6.1-11.9,10.8-20.2,14.1-8.3,3.3-18,5-28.9,5Z"/>
      <path class="cls-1" d="M1248.6,229.3v-125.3h38.8v22.8h1.3c2.3-8.3,6-14.4,11.2-18.5,5.2-4.1,11.2-6.1,18-6.1s3.8.1,5.7.4c2,.2,3.8.6,5.5,1.1v34.7c-1.9-.7-4.4-1.2-7.5-1.6-3.1-.4-5.8-.6-8.2-.6-4.7,0-9,1-12.8,3.1-3.8,2.1-6.7,5-8.9,8.7-2.1,3.7-3.2,8.1-3.2,13.1v68.1h-39.9Z"/>
      <path class="cls-1" d="M1394.8,229.3V62.2h40.4v134.3h69.5v32.8h-109.9Z"/>
      <path class="cls-1" d="M1606.5,175.2v-71.2h39.8v125.3h-38v-23.3h-1.3c-2.8,7.7-7.5,13.8-14.2,18.2-6.7,4.5-14.7,6.7-24.1,6.7s-16-2-22.5-5.9c-6.5-3.9-11.5-9.4-15.1-16.4-3.6-7-5.4-15.3-5.5-24.8v-79.9h39.9v72.1c0,6.8,1.8,12.2,5.4,16.1,3.5,3.9,8.4,5.9,14.4,5.9s7.5-.9,10.7-2.7c3.2-1.8,5.7-4.4,7.6-7.8,1.9-3.4,2.8-7.5,2.8-12.4Z"/>
      <path class="cls-1" d="M1730.2,231.7c-13.2,0-24.5-2.7-34-8.2-9.4-5.4-16.7-13-21.7-22.7-5.1-9.7-7.6-21-7.6-33.7s2.5-24.1,7.6-33.8,12.3-17.3,21.8-22.7c9.4-5.4,20.7-8.2,33.8-8.2s21.7,2.1,30.3,6.3c8.6,4.2,15.4,10.1,20.2,17.7,4.9,7.6,7.4,16.6,7.7,26.9h-37.3c-.8-6.4-2.9-11.5-6.5-15.1-3.6-3.6-8.2-5.5-13.9-5.5s-8.7,1.3-12.2,3.9c-3.5,2.6-6.2,6.4-8.1,11.4-1.9,5-2.9,11.2-2.9,18.6s1,13.6,2.9,18.7c1.9,5.1,4.6,8.9,8.1,11.5,3.5,2.6,7.5,3.9,12.2,3.9s7-.8,9.8-2.4c2.9-1.6,5.2-3.9,7.1-7,1.8-3.1,3-6.8,3.5-11.2h37.3c-.4,10.3-3,19.4-7.7,27.1-4.8,7.7-11.4,13.7-20,18-8.6,4.3-18.7,6.4-30.5,6.4Z"/>
      <path class="cls-1" d="M1867.4,231.7c-13.2,0-24.5-2.7-33.9-8.1-9.4-5.4-16.7-13-21.8-22.7s-7.6-21-7.6-33.8,2.5-24.2,7.6-33.9,12.3-17.3,21.8-22.7c9.4-5.4,20.7-8.1,33.9-8.1s24.5,2.7,33.9,8.1c9.4,5.4,16.7,13,21.8,22.7,5.1,9.7,7.6,21,7.6,33.9s-2.5,24.1-7.6,33.8c-5.1,9.7-12.4,17.3-21.8,22.7-9.4,5.4-20.7,8.1-33.9,8.1ZM1867.6,201.6c4.8,0,8.8-1.5,12.2-4.4,3.3-2.9,5.9-7,7.6-12.2,1.8-5.2,2.7-11.3,2.7-18.1s-.9-13.1-2.7-18.3c-1.8-5.2-4.3-9.3-7.6-12.2-3.3-2.9-7.4-4.4-12.2-4.4s-9.1,1.5-12.5,4.4c-3.4,2.9-6,7-7.8,12.2-1.8,5.2-2.7,11.3-2.7,18.3s.9,12.9,2.7,18.1c1.8,5.2,4.4,9.3,7.8,12.2,3.4,2.9,7.6,4.4,12.5,4.4Z"/>
      <path class="cls-1" d="M1991.1,62.2v167.1h-39.9V62.2h39.9Z"/>
      <path class="cls-1" d="M2075,231.7c-13.1,0-24.4-2.6-33.9-7.8-9.5-5.2-16.8-12.6-21.9-22.3-5.1-9.7-7.6-21.1-7.6-34.5s2.6-24.3,7.7-34c5.1-9.7,12.3-17.3,21.6-22.7,9.3-5.4,20.3-8.1,32.9-8.1s17.1,1.4,24.5,4.2c7.4,2.8,13.8,6.9,19.2,12.3,5.4,5.4,9.6,12.1,12.6,20.1,3,8,4.5,17.1,4.5,27.4v10h-108.9v-23.2h71.8c0-4.2-1.1-8-3-11.3-2-3.3-4.6-5.9-8-7.8-3.4-1.9-7.3-2.8-11.7-2.8s-8.5,1-12,3c-3.5,2-6.3,4.7-8.4,8.1-2.1,3.4-3.2,7.2-3.3,11.5v23.6c0,5.1,1,9.6,3,13.4,2,3.8,4.9,6.8,8.6,8.9,3.7,2.1,8.1,3.2,13.2,3.2s6.7-.5,9.6-1.5c2.9-1,5.4-2.4,7.4-4.3,2.1-1.9,3.6-4.2,4.7-7l36.6,1.1c-1.5,8.2-4.9,15.4-10,21.4-5.1,6.1-11.9,10.8-20.2,14.1-8.3,3.3-18,5-28.9,5Z"/>
      <path class="cls-1" d="M2264.4,142.2l-36.6,1c-.4-2.6-1.4-4.9-3.1-7-1.7-2-3.9-3.6-6.6-4.8-2.7-1.2-5.8-1.8-9.3-1.8s-8.6.9-11.8,2.8c-3.2,1.9-4.8,4.4-4.8,7.5,0,2.4.9,4.6,3,6.4,2,1.8,5.7,3.2,11,4.3l24.2,4.6c12.5,2.4,21.8,6.4,27.9,11.9,6.1,5.5,9.2,12.9,9.3,22,0,8.6-2.6,16.1-7.6,22.4s-11.9,11.3-20.6,14.8c-8.7,3.5-18.7,5.3-29.9,5.3-17.9,0-32-3.7-42.3-11.1-10.3-7.4-16.2-17.3-17.7-29.7l39.4-1c.9,4.6,3.1,8.1,6.8,10.4,3.6,2.4,8.3,3.6,14,3.6s9.3-1,12.5-2.9c3.2-1.9,4.8-4.4,4.9-7.6,0-2.8-1.3-5.1-3.8-6.8-2.4-1.7-6.3-3.1-11.5-4l-21.9-4.2c-12.6-2.3-21.9-6.5-28.1-12.7-6.1-6.2-9.2-14-9.1-23.6,0-8.4,2.2-15.5,6.7-21.5,4.5-6,10.9-10.5,19.3-13.7,8.3-3.2,18.1-4.7,29.5-4.7,17,0,30.4,3.5,40.1,10.6s15.2,16.9,16.2,29.3Z"/>
    </g>
  </g>
  <g class="cls-2">
    <g class="cls-2">
      <path class="cls-1" d="M1072.5,442.7h-45.3v-139.9h46.7c13.7,0,25.5,2.8,35.3,8.4,9.8,5.6,17.4,13.6,22.6,24,5.3,10.4,7.9,22.9,7.9,37.4s-2.7,27.1-8,37.6c-5.3,10.5-13,18.5-23,24.2-10,5.6-22.1,8.4-36.3,8.4ZM1048.3,424.3h23c10.7,0,19.5-2,26.6-6,7.1-4,12.3-9.9,15.9-17.6,3.5-7.7,5.3-17,5.3-28.1s-1.7-20.3-5.2-27.9c-3.5-7.7-8.7-13.5-15.5-17.4-6.9-4-15.4-5.9-25.6-5.9h-24.3v103Z"/>
      <path class="cls-1" d="M1209.6,444.8c-10.3,0-19.2-2.2-26.7-6.7-7.4-4.4-13.2-10.7-17.2-18.8-4-8.1-6-17.6-6-28.5s2-20.2,6-28.4c4-8.2,9.7-14.6,16.9-19.2,7.3-4.6,15.8-6.9,25.5-6.9s11.7,1,17.2,2.9c5.6,2,10.5,5,15,9.2,4.4,4.2,7.9,9.6,10.5,16.3,2.6,6.7,3.8,14.8,3.8,24.3v7.2h-83.4v-15.3h63.4c0-5.4-1.1-10.1-3.3-14.3-2.2-4.2-5.2-7.5-9.2-9.9-3.9-2.4-8.6-3.6-13.8-3.6s-10.7,1.4-15,4.2c-4.3,2.8-7.5,6.4-9.8,10.9-2.3,4.5-3.5,9.3-3.5,14.6v12c0,7,1.2,13,3.7,17.9,2.5,4.9,6,8.7,10.4,11.2,4.5,2.6,9.7,3.9,15.6,3.9s7.4-.6,10.6-1.7c3.2-1.1,5.9-2.8,8.3-5,2.3-2.2,4.1-5,5.3-8.3l19.3,3.5c-1.5,5.7-4.3,10.7-8.3,14.9-4,4.3-9,7.6-15,9.9-6,2.3-12.8,3.5-20.5,3.5Z"/>
      <path class="cls-1" d="M1364,337.8l-38.1,104.9h-21.9l-38.1-104.9h21.9l26.6,80.8h1.1l26.5-80.8h21.9Z"/>
      <path class="cls-1" d="M1424.8,444.8c-10.3,0-19.2-2.2-26.7-6.7-7.4-4.4-13.2-10.7-17.2-18.8-4-8.1-6-17.6-6-28.5s2-20.2,6-28.4c4-8.2,9.7-14.6,16.9-19.2,7.3-4.6,15.8-6.9,25.5-6.9s11.7,1,17.2,2.9c5.6,2,10.5,5,15,9.2,4.4,4.2,7.9,9.6,10.5,16.3,2.6,6.7,3.8,14.8,3.8,24.3v7.2h-83.4v-15.3h63.4c0-5.4-1.1-10.1-3.3-14.3-2.2-4.2-5.2-7.5-9.2-9.9-3.9-2.4-8.6-3.6-13.8-3.6s-10.7,1.4-15,4.2c-4.3,2.8-7.5,6.4-9.8,10.9-2.3,4.5-3.5,9.3-3.5,14.6v12c0,7,1.2,13,3.7,17.9,2.5,4.9,6,8.7,10.4,11.2,4.5,2.6,9.7,3.9,15.6,3.9s7.4-.6,10.6-1.7c3.2-1.1,5.9-2.8,8.3-5,2.3-2.2,4.1-5,5.3-8.3l19.3,3.5c-1.5,5.7-4.3,10.7-8.3,14.9-4,4.3-9,7.6-15,9.9-6,2.3-12.8,3.5-20.5,3.5Z"/>
      <path class="cls-1" d="M1513,302.8v139.9h-20.4v-139.9h20.4Z"/>
      <path class="cls-1" d="M1584.6,444.8c-9.8,0-18.4-2.3-25.8-6.8-7.3-4.5-13-10.8-17.1-18.9-4.1-8.1-6.1-17.6-6.1-28.4s2-20.4,6.1-28.6c4.1-8.2,9.7-14.5,17.1-19,7.3-4.5,15.9-6.8,25.8-6.8s18.4,2.3,25.8,6.8c7.3,4.5,13,10.8,17.1,19,4.1,8.2,6.1,17.7,6.1,28.6s-2,20.3-6.1,28.4c-4.1,8.1-9.7,14.4-17.1,18.9-7.3,4.5-15.9,6.8-25.8,6.8ZM1584.7,427.7c6.4,0,11.7-1.7,15.9-5.1,4.2-3.4,7.3-7.9,9.3-13.5,2-5.6,3-11.8,3-18.5s-1-12.9-3-18.5c-2-5.6-5.1-10.1-9.3-13.6-4.2-3.4-9.5-5.1-15.9-5.1s-11.7,1.7-16,5.1c-4.2,3.4-7.3,7.9-9.4,13.6-2,5.6-3,11.8-3,18.5s1,12.9,3,18.5c2,5.6,5.1,10.1,9.4,13.5,4.2,3.4,9.5,5.1,16,5.1Z"/>
      <path class="cls-1" d="M1656.3,482.1v-144.3h20v17h1.7c1.2-2.2,2.9-4.7,5.1-7.6,2.2-2.9,5.3-5.4,9.3-7.5,4-2.2,9.2-3.2,15.7-3.2s16,2.1,22.7,6.4c6.7,4.3,11.9,10.5,15.7,18.5,3.8,8.1,5.7,17.8,5.7,29.1s-1.9,21.1-5.7,29.1c-3.8,8.1-9,14.3-15.6,18.7-6.6,4.4-14.1,6.5-22.6,6.5s-11.6-1.1-15.6-3.2c-4-2.1-7.2-4.6-9.5-7.5-2.3-2.9-4-5.4-5.3-7.7h-1.2v55.7h-20.4ZM1676.3,390.2c0,7.4,1.1,13.8,3.2,19.4,2.1,5.6,5.2,9.9,9.3,13,4.1,3.1,9,4.7,14.9,4.7s11.2-1.6,15.3-4.9c4.1-3.3,7.2-7.7,9.3-13.3,2.1-5.6,3.2-11.9,3.2-18.9s-1-13.1-3.1-18.7c-2.1-5.5-5.2-9.9-9.3-13-4.1-3.2-9.3-4.8-15.4-4.8s-10.9,1.5-15,4.6c-4.1,3.1-7.2,7.3-9.3,12.8-2.1,5.5-3.1,11.8-3.1,19.1Z"/>
      <path class="cls-1" d="M1820.3,444.8c-10.3,0-19.2-2.2-26.7-6.7-7.4-4.4-13.2-10.7-17.2-18.8-4-8.1-6-17.6-6-28.5s2-20.2,6-28.4c4-8.2,9.7-14.6,16.9-19.2,7.3-4.6,15.8-6.9,25.5-6.9s11.7,1,17.2,2.9c5.6,2,10.5,5,15,9.2,4.4,4.2,7.9,9.6,10.5,16.3,2.6,6.7,3.8,14.8,3.8,24.3v7.2h-83.4v-15.3h63.4c0-5.4-1.1-10.1-3.3-14.3-2.2-4.2-5.2-7.5-9.2-9.9-3.9-2.4-8.6-3.6-13.8-3.6s-10.7,1.4-15,4.2c-4.3,2.8-7.5,6.4-9.8,10.9-2.3,4.5-3.5,9.3-3.5,14.6v12c0,7,1.2,13,3.7,17.9,2.5,4.9,6,8.7,10.4,11.2,4.5,2.6,9.7,3.9,15.6,3.9s7.4-.6,10.6-1.7c3.2-1.1,5.9-2.8,8.3-5,2.3-2.2,4.1-5,5.3-8.3l19.3,3.5c-1.5,5.7-4.3,10.7-8.3,14.9-4,4.3-9,7.6-15,9.9-6,2.3-12.8,3.5-20.5,3.5Z"/>
      <path class="cls-1" d="M1888.1,442.7v-104.9h19.7v16.7h1.1c1.9-5.6,5.3-10.1,10.1-13.4,4.9-3.3,10.4-4.9,16.5-4.9s2.8,0,4.5.1c1.8,0,3.1.2,4.1.3v19.5c-.8-.2-2.3-.5-4.4-.8-2.1-.3-4.2-.4-6.3-.4-4.8,0-9.1,1-12.9,3-3.8,2-6.7,4.8-8.9,8.4-2.2,3.6-3.3,7.6-3.3,12.2v64.1h-20.4Z"/>
    </g>
  </g>
</svg>